<?xml version="1.0" encoding="UTF-8" standalone="no"?>
<svg width="26px" height="22px" viewBox="0 0 26 22" version="1.1" xmlns="http://www.w3.org/2000/svg" xmlns:xlink="http://www.w3.org/1999/xlink" xmlns:sketch="http://www.bohemiancoding.com/sketch/ns">
    <!-- Generator: Sketch 3.3.3 (12081) - http://www.bohemiancoding.com/sketch -->
    <title>Fill 197</title>
    <desc>Created with Sketch.</desc>
    <defs></defs>
    <g id="Page-1" stroke="none" stroke-width="1" fill="none" fill-rule="evenodd" sketch:type="MSPage">
        <g id="Downloads" sketch:type="MSArtboardGroup" transform="translate(-262.000000, -296.000000)" fill="#404040">
            <g id="left-side" sketch:type="MSLayerGroup" transform="translate(0.000000, -4.000000)">
                <g id="Content" transform="translate(247.000000, 148.000000)" sketch:type="MSShapeGroup">
                    <g id="Download-button" transform="translate(4.000000, 139.000000)">
                        <path d="M19.5073696,25.8446154 C18.4933696,25.8446154 17.6709783,26.9812821 17.6709783,28.3830769 C17.6709783,29.7848718 18.4933696,30.9215385 19.5073696,30.9215385 C20.5225,30.9215385 21.3448913,29.7848718 21.3448913,28.3830769 C21.3448913,26.9812821 20.5225,25.8446154 19.5073696,25.8446154 L19.5073696,25.8446154 Z M24.0395652,33.7505128 L23.9601522,33.7505128 C18.6304348,33.7505128 14.4800435,33.1158974 14.4800435,27.9458974 C14.4800435,26.7076923 14.9178043,25.5597436 15.9575217,24.6035897 C17.6930217,23.015641 20.6284783,23.8561538 23.9601522,23.8561538 L23.9997174,23.8561538 L24.0395652,23.8561538 C27.3712391,23.8561538 30.3072609,23.015641 32.041913,24.6035897 C33.081913,25.5597436 33.5196739,26.7076923 33.5196739,27.9458974 C33.5196739,33.1158974 29.3695652,33.7505128 24.0395652,33.7505128 L24.0395652,33.7505128 Z M34.8880652,19.2417949 C35.0971957,18.725641 35.1076522,15.8007692 33.9921957,13 C33.9921957,13 31.4326087,13.2792308 27.5600217,15.9305128 C26.748087,15.7076923 25.3737609,15.5948718 23.9997174,15.5948718 C22.6259565,15.5948718 21.2521957,15.7076923 20.4396957,15.9305128 C16.5671087,13.2792308 14.008087,13 14.008087,13 C12.8926304,15.8007692 12.9025217,18.725641 13.1116522,19.2417949 C11.8006304,20.6605128 11,22.3669231 11,24.6994872 C11,34.8335897 19.424,34.9971795 21.5506304,34.9971795 C22.031913,34.9971795 22.9885435,34.9971795 23.9997174,35 C25.0108913,34.9971795 25.968087,34.9971795 26.4488043,34.9971795 C28.5757174,34.9971795 37,34.8335897 37,24.6994872 C37,22.3669231 36.1988043,20.6605128 34.8880652,19.2417949 L34.8880652,19.2417949 Z M28.4923478,25.8446154 C27.4777826,25.8446154 26.6548261,26.9812821 26.6548261,28.3830769 C26.6548261,29.7848718 27.4777826,30.9215385 28.4923478,30.9215385 C29.5063478,30.9215385 30.3287391,29.7848718 30.3287391,28.3830769 C30.3287391,26.9812821 29.5063478,25.8446154 28.4923478,25.8446154 L28.4923478,25.8446154 Z" id="Fill-197"></path>
                    </g>
                </g>
            </g>
        </g>
    </g>
</svg>